<mxfile host="app.diagrams.net" modified="2022-06-09T14:25:23.667Z" agent="5.0 (Windows NT 10.0; Win64; x64) AppleWebKit/537.36 (KHTML, like Gecko) Chrome/102.0.5005.63 Safari/537.36" etag="PMzCI6k7PzGGiqZwIz7r" version="19.0.3" type="github">
  <diagram id="7P3Ccxsnj0quUjm4MN6R" name="Page-1">
    <mxGraphModel dx="982" dy="534" grid="1" gridSize="10" guides="1" tooltips="1" connect="1" arrows="1" fold="1" page="1" pageScale="1" pageWidth="1654" pageHeight="1169" math="0" shadow="0">
      <root>
        <mxCell id="0" />
        <mxCell id="1" parent="0" />
        <mxCell id="uJKiOVfDDFnrIqOiBToG-12" value="Electrovamp.Domain" style="swimlane;fontStyle=1;align=center;verticalAlign=middle;childLayout=stackLayout;horizontal=1;startSize=29;horizontalStack=0;resizeParent=1;resizeParentMax=0;resizeLast=0;collapsible=0;marginBottom=0;html=1;" vertex="1" parent="1">
          <mxGeometry x="720" y="620" width="200" height="179" as="geometry" />
        </mxCell>
        <mxCell id="uJKiOVfDDFnrIqOiBToG-13" value="OpcCli" style="text;html=1;strokeColor=none;fillColor=none;align=center;verticalAlign=middle;spacingLeft=4;spacingRight=4;overflow=hidden;rotatable=0;points=[[0,0.5],[1,0.5]];portConstraint=eastwest;fontStyle=0" vertex="1" parent="uJKiOVfDDFnrIqOiBToG-12">
          <mxGeometry y="29" width="200" height="25" as="geometry" />
        </mxCell>
        <mxCell id="uJKiOVfDDFnrIqOiBToG-14" value="OpcClient" style="text;html=1;strokeColor=none;fillColor=none;align=center;verticalAlign=middle;spacingLeft=4;spacingRight=4;overflow=hidden;rotatable=0;points=[[0,0.5],[1,0.5]];portConstraint=eastwest;" vertex="1" parent="uJKiOVfDDFnrIqOiBToG-12">
          <mxGeometry y="54" width="200" height="25" as="geometry" />
        </mxCell>
        <mxCell id="uJKiOVfDDFnrIqOiBToG-16" value="MariadbData" style="text;html=1;strokeColor=none;fillColor=none;align=center;verticalAlign=middle;spacingLeft=4;spacingRight=4;overflow=hidden;rotatable=0;points=[[0,0.5],[1,0.5]];portConstraint=eastwest;" vertex="1" parent="uJKiOVfDDFnrIqOiBToG-12">
          <mxGeometry y="79" width="200" height="25" as="geometry" />
        </mxCell>
        <mxCell id="uJKiOVfDDFnrIqOiBToG-17" value="MachineState" style="text;html=1;strokeColor=none;fillColor=none;align=center;verticalAlign=middle;spacingLeft=4;spacingRight=4;overflow=hidden;rotatable=0;points=[[0,0.5],[1,0.5]];portConstraint=eastwest;" vertex="1" parent="uJKiOVfDDFnrIqOiBToG-12">
          <mxGeometry y="104" width="200" height="25" as="geometry" />
        </mxCell>
        <mxCell id="uJKiOVfDDFnrIqOiBToG-18" value="LogLine" style="text;html=1;strokeColor=none;fillColor=none;align=center;verticalAlign=middle;spacingLeft=4;spacingRight=4;overflow=hidden;rotatable=0;points=[[0,0.5],[1,0.5]];portConstraint=eastwest;" vertex="1" parent="uJKiOVfDDFnrIqOiBToG-12">
          <mxGeometry y="129" width="200" height="25" as="geometry" />
        </mxCell>
        <mxCell id="uJKiOVfDDFnrIqOiBToG-19" value="KepwareData" style="text;html=1;strokeColor=none;fillColor=none;align=center;verticalAlign=middle;spacingLeft=4;spacingRight=4;overflow=hidden;rotatable=0;points=[[0,0.5],[1,0.5]];portConstraint=eastwest;" vertex="1" parent="uJKiOVfDDFnrIqOiBToG-12">
          <mxGeometry y="154" width="200" height="25" as="geometry" />
        </mxCell>
        <mxCell id="uJKiOVfDDFnrIqOiBToG-32" value="Electrovamp.ApplicationCore" style="swimlane;fontStyle=1;align=center;verticalAlign=middle;childLayout=stackLayout;horizontal=1;startSize=29;horizontalStack=0;resizeParent=1;resizeParentMax=0;resizeLast=0;collapsible=0;marginBottom=0;html=1;fontSize=12;" vertex="1" parent="1">
          <mxGeometry x="920" y="200" width="200" height="104" as="geometry" />
        </mxCell>
        <mxCell id="uJKiOVfDDFnrIqOiBToG-33" value="Interfaces" style="text;html=1;strokeColor=none;fillColor=none;align=center;verticalAlign=middle;spacingLeft=4;spacingRight=4;overflow=hidden;rotatable=0;points=[[0,0.5],[1,0.5]];portConstraint=eastwest;fontSize=12;" vertex="1" parent="uJKiOVfDDFnrIqOiBToG-32">
          <mxGeometry y="29" width="200" height="25" as="geometry" />
        </mxCell>
        <mxCell id="uJKiOVfDDFnrIqOiBToG-34" value="Servicies" style="text;html=1;strokeColor=none;fillColor=none;align=center;verticalAlign=middle;spacingLeft=4;spacingRight=4;overflow=hidden;rotatable=0;points=[[0,0.5],[1,0.5]];portConstraint=eastwest;fontSize=12;" vertex="1" parent="uJKiOVfDDFnrIqOiBToG-32">
          <mxGeometry y="54" width="200" height="25" as="geometry" />
        </mxCell>
        <mxCell id="uJKiOVfDDFnrIqOiBToG-35" value="Config" style="text;html=1;strokeColor=none;fillColor=none;align=center;verticalAlign=middle;spacingLeft=4;spacingRight=4;overflow=hidden;rotatable=0;points=[[0,0.5],[1,0.5]];portConstraint=eastwest;fontSize=12;" vertex="1" parent="uJKiOVfDDFnrIqOiBToG-32">
          <mxGeometry y="79" width="200" height="25" as="geometry" />
        </mxCell>
        <mxCell id="uJKiOVfDDFnrIqOiBToG-37" value="" style="endArrow=none;html=1;rounded=0;fontSize=12;entryX=1;entryY=0.5;entryDx=0;entryDy=0;exitX=0;exitY=0.5;exitDx=0;exitDy=0;" edge="1" parent="1" source="uJKiOVfDDFnrIqOiBToG-41" target="uJKiOVfDDFnrIqOiBToG-33">
          <mxGeometry width="50" height="50" relative="1" as="geometry">
            <mxPoint x="910" y="248.25" as="sourcePoint" />
            <mxPoint x="790" y="275" as="targetPoint" />
          </mxGeometry>
        </mxCell>
        <mxCell id="uJKiOVfDDFnrIqOiBToG-38" value="Interfaces" style="swimlane;fontStyle=1;align=center;verticalAlign=middle;childLayout=stackLayout;horizontal=1;startSize=29;horizontalStack=0;resizeParent=1;resizeParentMax=0;resizeLast=0;collapsible=0;marginBottom=0;html=1;fontSize=12;" vertex="1" parent="1">
          <mxGeometry x="1200" y="60" width="180" height="129" as="geometry" />
        </mxCell>
        <mxCell id="uJKiOVfDDFnrIqOiBToG-39" value="IBufferService" style="text;html=1;strokeColor=none;fillColor=none;align=center;verticalAlign=middle;spacingLeft=4;spacingRight=4;overflow=hidden;rotatable=0;points=[[0,0.5],[1,0.5]];portConstraint=eastwest;fontSize=12;" vertex="1" parent="uJKiOVfDDFnrIqOiBToG-38">
          <mxGeometry y="29" width="180" height="25" as="geometry" />
        </mxCell>
        <mxCell id="uJKiOVfDDFnrIqOiBToG-40" value="IMidageService" style="text;html=1;strokeColor=none;fillColor=none;align=center;verticalAlign=middle;spacingLeft=4;spacingRight=4;overflow=hidden;rotatable=0;points=[[0,0.5],[1,0.5]];portConstraint=eastwest;fontSize=12;" vertex="1" parent="uJKiOVfDDFnrIqOiBToG-38">
          <mxGeometry y="54" width="180" height="25" as="geometry" />
        </mxCell>
        <mxCell id="uJKiOVfDDFnrIqOiBToG-41" value="IOpcClientService" style="text;html=1;strokeColor=none;fillColor=none;align=center;verticalAlign=middle;spacingLeft=4;spacingRight=4;overflow=hidden;rotatable=0;points=[[0,0.5],[1,0.5]];portConstraint=eastwest;fontSize=12;" vertex="1" parent="uJKiOVfDDFnrIqOiBToG-38">
          <mxGeometry y="79" width="180" height="25" as="geometry" />
        </mxCell>
        <mxCell id="uJKiOVfDDFnrIqOiBToG-42" value="ISalvagniniSerivce" style="text;html=1;strokeColor=none;fillColor=none;align=center;verticalAlign=middle;spacingLeft=4;spacingRight=4;overflow=hidden;rotatable=0;points=[[0,0.5],[1,0.5]];portConstraint=eastwest;fontSize=12;" vertex="1" parent="uJKiOVfDDFnrIqOiBToG-38">
          <mxGeometry y="104" width="180" height="25" as="geometry" />
        </mxCell>
        <mxCell id="uJKiOVfDDFnrIqOiBToG-65" value="" style="endArrow=none;html=1;rounded=0;fontSize=12;exitX=0;exitY=0.5;exitDx=0;exitDy=0;entryX=1;entryY=0.5;entryDx=0;entryDy=0;" edge="1" parent="1" source="uJKiOVfDDFnrIqOiBToG-71" target="uJKiOVfDDFnrIqOiBToG-34">
          <mxGeometry width="50" height="50" relative="1" as="geometry">
            <mxPoint x="540" y="185" as="sourcePoint" />
            <mxPoint x="1070" y="259" as="targetPoint" />
          </mxGeometry>
        </mxCell>
        <mxCell id="uJKiOVfDDFnrIqOiBToG-66" value="Servicies" style="swimlane;fontStyle=1;align=center;verticalAlign=middle;childLayout=stackLayout;horizontal=1;startSize=29;horizontalStack=0;resizeParent=1;resizeParentMax=0;resizeLast=0;collapsible=0;marginBottom=0;html=1;fontSize=12;" vertex="1" parent="1">
          <mxGeometry x="1200" y="230" width="180" height="204" as="geometry" />
        </mxCell>
        <mxCell id="uJKiOVfDDFnrIqOiBToG-71" value="BackgroundServiceA" style="text;html=1;strokeColor=none;fillColor=none;align=center;verticalAlign=middle;spacingLeft=4;spacingRight=4;overflow=hidden;rotatable=0;points=[[0,0.5],[1,0.5]];portConstraint=eastwest;fontSize=12;" vertex="1" parent="uJKiOVfDDFnrIqOiBToG-66">
          <mxGeometry y="29" width="180" height="25" as="geometry" />
        </mxCell>
        <mxCell id="uJKiOVfDDFnrIqOiBToG-72" value="BackgroundServiceB" style="text;html=1;strokeColor=none;fillColor=none;align=center;verticalAlign=middle;spacingLeft=4;spacingRight=4;overflow=hidden;rotatable=0;points=[[0,0.5],[1,0.5]];portConstraint=eastwest;fontSize=12;" vertex="1" parent="uJKiOVfDDFnrIqOiBToG-66">
          <mxGeometry y="54" width="180" height="25" as="geometry" />
        </mxCell>
        <mxCell id="uJKiOVfDDFnrIqOiBToG-73" value="BackgroundServiceC" style="text;html=1;strokeColor=none;fillColor=none;align=center;verticalAlign=middle;spacingLeft=4;spacingRight=4;overflow=hidden;rotatable=0;points=[[0,0.5],[1,0.5]];portConstraint=eastwest;fontSize=12;" vertex="1" parent="uJKiOVfDDFnrIqOiBToG-66">
          <mxGeometry y="79" width="180" height="25" as="geometry" />
        </mxCell>
        <mxCell id="uJKiOVfDDFnrIqOiBToG-74" value="FirstgenService" style="text;html=1;strokeColor=none;fillColor=none;align=center;verticalAlign=middle;spacingLeft=4;spacingRight=4;overflow=hidden;rotatable=0;points=[[0,0.5],[1,0.5]];portConstraint=eastwest;fontSize=12;" vertex="1" parent="uJKiOVfDDFnrIqOiBToG-66">
          <mxGeometry y="104" width="180" height="25" as="geometry" />
        </mxCell>
        <mxCell id="uJKiOVfDDFnrIqOiBToG-75" value="MidageService" style="text;html=1;strokeColor=none;fillColor=none;align=center;verticalAlign=middle;spacingLeft=4;spacingRight=4;overflow=hidden;rotatable=0;points=[[0,0.5],[1,0.5]];portConstraint=eastwest;fontSize=12;" vertex="1" parent="uJKiOVfDDFnrIqOiBToG-66">
          <mxGeometry y="129" width="180" height="25" as="geometry" />
        </mxCell>
        <mxCell id="uJKiOVfDDFnrIqOiBToG-76" value="ResetService" style="text;html=1;strokeColor=none;fillColor=none;align=center;verticalAlign=middle;spacingLeft=4;spacingRight=4;overflow=hidden;rotatable=0;points=[[0,0.5],[1,0.5]];portConstraint=eastwest;fontSize=12;" vertex="1" parent="uJKiOVfDDFnrIqOiBToG-66">
          <mxGeometry y="154" width="180" height="25" as="geometry" />
        </mxCell>
        <mxCell id="uJKiOVfDDFnrIqOiBToG-77" value="SalvagniniService" style="text;html=1;strokeColor=none;fillColor=none;align=center;verticalAlign=middle;spacingLeft=4;spacingRight=4;overflow=hidden;rotatable=0;points=[[0,0.5],[1,0.5]];portConstraint=eastwest;fontSize=12;" vertex="1" parent="uJKiOVfDDFnrIqOiBToG-66">
          <mxGeometry y="179" width="180" height="25" as="geometry" />
        </mxCell>
        <mxCell id="uJKiOVfDDFnrIqOiBToG-83" value="Electrovamp.Console" style="swimlane;fontStyle=1;align=center;verticalAlign=middle;childLayout=stackLayout;horizontal=1;startSize=29;horizontalStack=0;resizeParent=1;resizeParentMax=0;resizeLast=0;collapsible=0;marginBottom=0;html=1;fontSize=12;" vertex="1" parent="1">
          <mxGeometry x="720" y="20" width="200" height="54" as="geometry" />
        </mxCell>
        <mxCell id="uJKiOVfDDFnrIqOiBToG-86" value="Progam.cs" style="text;html=1;strokeColor=none;fillColor=none;align=center;verticalAlign=middle;spacingLeft=4;spacingRight=4;overflow=hidden;rotatable=0;points=[[0,0.5],[1,0.5]];portConstraint=eastwest;fontSize=12;" vertex="1" parent="uJKiOVfDDFnrIqOiBToG-83">
          <mxGeometry y="29" width="200" height="25" as="geometry" />
        </mxCell>
        <mxCell id="uJKiOVfDDFnrIqOiBToG-88" value="Electrovamp.Data" style="swimlane;fontStyle=1;align=center;verticalAlign=middle;childLayout=stackLayout;horizontal=1;startSize=29;horizontalStack=0;resizeParent=1;resizeParentMax=0;resizeLast=0;collapsible=0;marginBottom=0;html=1;fontSize=12;" vertex="1" parent="1">
          <mxGeometry x="520" y="200" width="200" height="104" as="geometry" />
        </mxCell>
        <mxCell id="uJKiOVfDDFnrIqOiBToG-89" value="BufferService" style="text;html=1;strokeColor=none;fillColor=none;align=center;verticalAlign=middle;spacingLeft=4;spacingRight=4;overflow=hidden;rotatable=0;points=[[0,0.5],[1,0.5]];portConstraint=eastwest;fontSize=12;" vertex="1" parent="uJKiOVfDDFnrIqOiBToG-88">
          <mxGeometry y="29" width="200" height="25" as="geometry" />
        </mxCell>
        <mxCell id="uJKiOVfDDFnrIqOiBToG-90" value="MariadbClient" style="text;html=1;strokeColor=none;fillColor=none;align=center;verticalAlign=middle;spacingLeft=4;spacingRight=4;overflow=hidden;rotatable=0;points=[[0,0.5],[1,0.5]];portConstraint=eastwest;fontSize=12;" vertex="1" parent="uJKiOVfDDFnrIqOiBToG-88">
          <mxGeometry y="54" width="200" height="25" as="geometry" />
        </mxCell>
        <mxCell id="uJKiOVfDDFnrIqOiBToG-91" value="SalvagniniLogReader" style="text;html=1;strokeColor=none;fillColor=none;align=center;verticalAlign=middle;spacingLeft=4;spacingRight=4;overflow=hidden;rotatable=0;points=[[0,0.5],[1,0.5]];portConstraint=eastwest;fontSize=12;" vertex="1" parent="uJKiOVfDDFnrIqOiBToG-88">
          <mxGeometry y="79" width="200" height="25" as="geometry" />
        </mxCell>
        <mxCell id="uJKiOVfDDFnrIqOiBToG-93" value="" style="endArrow=classic;html=1;rounded=0;fontSize=12;exitX=0.5;exitY=1;exitDx=0;exitDy=0;entryX=0.51;entryY=-0.032;entryDx=0;entryDy=0;entryPerimeter=0;" edge="1" parent="1" source="uJKiOVfDDFnrIqOiBToG-83" target="uJKiOVfDDFnrIqOiBToG-88">
          <mxGeometry width="50" height="50" relative="1" as="geometry">
            <mxPoint x="930" y="320" as="sourcePoint" />
            <mxPoint x="980" y="270" as="targetPoint" />
          </mxGeometry>
        </mxCell>
        <mxCell id="uJKiOVfDDFnrIqOiBToG-94" value="" style="endArrow=classic;html=1;rounded=0;fontSize=12;entryX=0.5;entryY=0;entryDx=0;entryDy=0;exitX=0.497;exitY=1.038;exitDx=0;exitDy=0;exitPerimeter=0;" edge="1" parent="1" source="uJKiOVfDDFnrIqOiBToG-86" target="uJKiOVfDDFnrIqOiBToG-32">
          <mxGeometry width="50" height="50" relative="1" as="geometry">
            <mxPoint x="820" y="70" as="sourcePoint" />
            <mxPoint x="980" y="270" as="targetPoint" />
          </mxGeometry>
        </mxCell>
        <mxCell id="uJKiOVfDDFnrIqOiBToG-95" value="" style="endArrow=classic;html=1;rounded=0;fontSize=12;entryX=0.5;entryY=0;entryDx=0;entryDy=0;exitX=0.493;exitY=1.038;exitDx=0;exitDy=0;exitPerimeter=0;" edge="1" parent="1" source="uJKiOVfDDFnrIqOiBToG-86" target="uJKiOVfDDFnrIqOiBToG-12">
          <mxGeometry width="50" height="50" relative="1" as="geometry">
            <mxPoint x="820" y="70" as="sourcePoint" />
            <mxPoint x="980" y="270" as="targetPoint" />
          </mxGeometry>
        </mxCell>
        <mxCell id="uJKiOVfDDFnrIqOiBToG-96" value="" style="endArrow=classic;html=1;rounded=0;fontSize=12;exitX=0.516;exitY=1.082;exitDx=0;exitDy=0;exitPerimeter=0;entryX=0.5;entryY=0;entryDx=0;entryDy=0;" edge="1" parent="1" source="uJKiOVfDDFnrIqOiBToG-35" target="uJKiOVfDDFnrIqOiBToG-12">
          <mxGeometry width="50" height="50" relative="1" as="geometry">
            <mxPoint x="900" y="480" as="sourcePoint" />
            <mxPoint x="1100" y="480" as="targetPoint" />
          </mxGeometry>
        </mxCell>
        <mxCell id="uJKiOVfDDFnrIqOiBToG-97" value="" style="endArrow=classic;html=1;rounded=0;fontSize=12;exitX=0.49;exitY=1.055;exitDx=0;exitDy=0;exitPerimeter=0;" edge="1" parent="1" source="uJKiOVfDDFnrIqOiBToG-91">
          <mxGeometry width="50" height="50" relative="1" as="geometry">
            <mxPoint x="790" y="420" as="sourcePoint" />
            <mxPoint x="820" y="620" as="targetPoint" />
          </mxGeometry>
        </mxCell>
        <mxCell id="uJKiOVfDDFnrIqOiBToG-98" value="" style="endArrow=classic;html=1;rounded=0;fontSize=12;entryX=1;entryY=0.25;entryDx=0;entryDy=0;exitX=0;exitY=0.25;exitDx=0;exitDy=0;" edge="1" parent="1" source="uJKiOVfDDFnrIqOiBToG-32" target="uJKiOVfDDFnrIqOiBToG-88">
          <mxGeometry width="50" height="50" relative="1" as="geometry">
            <mxPoint x="920" y="260" as="sourcePoint" />
            <mxPoint x="840" y="230" as="targetPoint" />
          </mxGeometry>
        </mxCell>
      </root>
    </mxGraphModel>
  </diagram>
</mxfile>
